<?xml version="1.0" standalone="no"?>
<!DOCTYPE svg PUBLIC "-//W3C//DTD SVG 20010904//EN"
 "http://www.w3.org/TR/2001/REC-SVG-20010904/DTD/svg10.dtd">
<svg version="1.0" xmlns="http://www.w3.org/2000/svg"
 width="642.000000pt" height="642.000000pt" viewBox="0 0 642.000000 642.000000"
 preserveAspectRatio="xMidYMid meet">
<metadata>
Created by potrace 1.14, written by Peter Selinger 2001-2017
</metadata>
<g transform="translate(0.000000,642.000000) scale(0.100000,-0.100000)"
fill="#000000" stroke="none">
<path d="M3609 5516 c-2 -2 -42 -6 -89 -10 -47 -3 -94 -8 -105 -10 -11 -2 -45
-7 -75 -11 -30 -4 -93 -16 -140 -26 -47 -11 -95 -22 -106 -24 -12 -3 -53 -15
-90 -27 -38 -12 -71 -22 -74 -23 -15 -3 -86 -28 -95 -34 -5 -3 -12 -6 -15 -6
-11 -2 -120 -52 -190 -88 -248 -128 -519 -357 -656 -554 -18 -26 -37 -52 -41
-58 -23 -28 -96 -150 -131 -221 -68 -133 -126 -296 -177 -494 -1 -5 -8 -41
-20 -100 -9 -44 -24 -144 -30 -195 -3 -27 -10 -81 -15 -120 -9 -73 -6 -597 4
-675 3 -25 8 -65 11 -90 10 -77 16 -113 51 -285 48 -236 154 -498 281 -695 82
-126 146 -204 250 -307 270 -266 619 -443 1028 -522 98 -19 131 -23 270 -38
139 -14 560 -7 664 12 9 1 42 6 75 10 64 7 85 11 166 26 90 17 102 19 170 35
36 9 72 17 80 19 141 31 552 165 577 189 11 10 47 165 67 286 7 40 7 43 47
250 16 85 32 165 34 177 8 34 -27 63 -75 63 -39 0 -90 -17 -90 -30 0 -9 -147
-159 -200 -206 -20 -17 -72 -55 -115 -84 -44 -30 -82 -57 -85 -60 -3 -3 -59
-33 -126 -67 -139 -72 -260 -120 -389 -157 -90 -25 -100 -27 -185 -41 -25 -4
-54 -9 -65 -11 -88 -17 -365 -23 -517 -11 -92 8 -236 30 -303 48 -22 6 -47 12
-56 14 -63 12 -229 82 -348 145 -75 40 -213 150 -282 225 -73 79 -95 107 -160
204 -259 383 -362 847 -326 1466 4 66 9 131 11 145 3 14 7 44 10 67 46 363
177 690 372 935 97 121 278 281 394 347 268 154 513 219 855 226 248 5 423
-19 596 -81 125 -45 268 -125 351 -196 14 -13 35 -30 45 -39 70 -60 187 -209
240 -304 34 -59 103 -205 103 -216 0 -6 7 -23 15 -39 15 -29 80 -245 89 -295
9 -49 18 -66 39 -74 26 -10 96 -6 108 6 22 22 31 176 35 593 2 201 5 388 7
415 8 85 20 299 19 320 -2 30 -26 42 -177 90 -247 78 -564 152 -725 170 -30 3
-62 8 -70 10 -8 2 -46 7 -85 11 -38 3 -86 8 -105 11 -46 5 -526 14 -531 9z"/>
<path d="M1685 4820 c-70 -42 -89 -54 -95 -60 -3 -3 -23 -17 -45 -32 -130 -89
-284 -257 -379 -415 -122 -204 -236 -523 -272 -760 -3 -21 -7 -49 -10 -63 -22
-117 -22 -513 0 -640 3 -14 7 -43 10 -65 3 -22 8 -51 11 -65 2 -14 10 -50 16
-80 15 -76 63 -243 95 -326 35 -95 119 -268 161 -334 108 -168 134 -201 243
-310 127 -128 211 -190 356 -264 76 -38 103 -43 122 -24 20 20 14 41 -24 83
-19 22 -45 51 -57 65 -104 118 -242 358 -310 541 -64 170 -123 406 -141 564
-3 28 -8 59 -10 70 -27 138 -29 795 -2 930 2 11 7 45 10 76 4 31 9 67 11 80 3
13 8 38 11 54 56 318 190 643 368 894 49 69 56 95 30 105 -29 11 -48 6 -99
-24z"/>
</g>
</svg>
